<svg xmlns="http://www.w3.org/2000/svg" viewBox="0 0 1200 520" role="img" aria-label="Technology ecosystem map">
<defs><linearGradient id="bg" x2="1" y2="1"><stop stop-color="#071f38"/><stop offset="1" stop-color="#176c9c"/></linearGradient></defs><rect width="1200" height="520" rx="28" fill="url(#bg)"/><g fill="none" stroke="#9ed8ef" stroke-width="3" stroke-dasharray="8 8" opacity=".8"><path d="M196 250C360 250 385 125 505 125"/><path d="M196 250C350 250 380 382 505 382"/><path d="M615 125C720 125 748 190 866 190"/><path d="M615 382C735 382 746 312 866 312"/><path d="M970 190v122"/></g><g font-family="Inter,Arial,sans-serif" fill="#fff" text-anchor="middle"><g><circle cx="196" cy="250" r="85" fill="#f4bf58"/><text x="196" y="238" font-size="20" font-weight="800" fill="#09223b">TECHNOLOGY</text><text x="196" y="265" font-size="18" fill="#09223b">DEVELOPMENT</text></g><g><circle cx="560" cy="125" r="74" fill="#22aaa8"/><text x="560" y="116" font-size="18" font-weight="800">Digital</text><text x="560" y="140" font-size="18" font-weight="800">microfluidics</text></g><g><circle cx="560" cy="382" r="74" fill="#765cc2"/><text x="560" y="373" font-size="18" font-weight="800">Exosome</text><text x="560" y="397" font-size="18" font-weight="800">engineering</text></g><g><circle cx="918" cy="190" r="72" fill="#e47558"/><text x="918" y="181" font-size="18" font-weight="800">Gene / disease</text><text x="918" y="205" font-size="18" font-weight="800">diagnostics</text></g><g><circle cx="918" cy="312" r="72" fill="#2c8ac1"/><text x="918" y="303" font-size="18" font-weight="800">Biosensing + AI</text><text x="918" y="327" font-size="18" font-weight="800">health systems</text></g><g><rect x="1022" y="208" width="142" height="86" rx="18" fill="#fff"/><text x="1093" y="241" font-size="17" font-weight="800" fill="#08223d">CIER</text><text x="1093" y="266" font-size="14" fill="#08223d">technology →</text><text x="1093" y="284" font-size="14" fill="#08223d">industry strategy</text></g></g><text x="60" y="474" font-family="Inter,Arial,sans-serif" font-size="16" fill="#c6e7f3">From microsystems and evidence to health applications, industrial context, and policy insight.</text></svg>
